<svg version="1.1" xmlns="http://www.w3.org/2000/svg" xmlns:xlink="http://www.w3.org/1999/xlink" width="1732" height="612">
    <defs />
    <g>
        <g transform="translate(2,10) scale(1,1)">
            <path fill="none" stroke="#000000" d="M 8 0 L 1720 0 L 1720 591 L 8 591 L 8 0" stroke-miterlimit="10" />
        </g>
        <g transform="translate(2,10) scale(1,1)">
            <path fill="#ffffff" stroke="none" d="M 8 0 L 8 22 L 136.734375 22 L 147.734375 11 L 147.734375 0 L 8 0" />
        </g>
        <g transform="translate(2,10) scale(1,1)">
            <path fill="none" stroke="#000000" d="M 8 0 L 8 22 L 136.734375 22 L 147.734375 11 L 147.734375 0 L 8 0 L 8 0" stroke-miterlimit="10" />
        </g>
        <g transform="translate(2,10) scale(1,1)">
            <g>
                <path fill="none" stroke="none" />
                <text fill="#000000" stroke="none" font-family="Arial" font-size="13px" font-style="normal" font-weight="normal" text-decoration="none" x="32.72998046875" y="17.5">Generate Invoice</text>
            </g>
        </g>
        <g transform="translate(2,10) scale(1,1)">
            <g>
                <path fill="none" stroke="none" />
                <text fill="#000000" stroke="none" font-family="Arial" font-size="13px" font-style="normal" font-weight="bold" text-decoration="none" x="13" y="17.5">sd</text>
            </g>
        </g>
        <g transform="translate(2,10) scale(1,1)">
            <rect fill="#C0C0C0" stroke="none" x="23" y="47" width="52.947265625" height="39" opacity="0.2" />
        </g>
        <g transform="translate(2,10) scale(1,1)">
            <rect fill="#ffffff" stroke="none" x="16" y="40" width="52.947265625" height="39" />
        </g>
        <g transform="translate(2,10) scale(1,1)">
            <path fill="none" stroke="#000000" d="M 16 40 L 68.947265625 40 L 68.947265625 79 L 16 79 L 16 40 Z Z" stroke-miterlimit="10" />
        </g>
        <g transform="translate(2,10) scale(1,1)">
            <g>
                <path fill="none" stroke="none" />
                <text fill="#000000" stroke="none" font-family="Arial" font-size="13px" font-style="normal" font-weight="bold" text-decoration="none" x="27.302734375" y="59.5">Actor</text>
            </g>
        </g>
        <g transform="translate(2,10) scale(1,1)">
            <path fill="none" stroke="#000000" d="M 43.5 80 L 43.5 592" stroke-miterlimit="10" stroke-dasharray="3" />
        </g>
        <g transform="translate(2,10) scale(1,1)">
            <rect fill="#C0C0C0" stroke="none" x="151" y="47" width="136.0126953125" height="39" opacity="0.2" />
        </g>
        <g transform="translate(2,10) scale(1,1)">
            <rect fill="#ffffff" stroke="none" x="144" y="40" width="136.0126953125" height="39" />
        </g>
        <g transform="translate(2,10) scale(1,1)">
            <path fill="none" stroke="#000000" d="M 144 40 L 280.0126953125 40 L 280.0126953125 79 L 144 79 L 144 40 Z Z" stroke-miterlimit="10" />
        </g>
        <g transform="translate(2,10) scale(1,1)">
            <g>
                <path fill="none" stroke="none" />
                <text fill="#000000" stroke="none" font-family="Arial" font-size="13px" font-style="normal" font-weight="bold" text-decoration="none" x="161.069580078125" y="59.5">: RepairController</text>
            </g>
        </g>
        <g transform="translate(2,10) scale(1,1)">
            <path fill="none" stroke="#000000" d="M 213.5 80 L 213.5 592" stroke-miterlimit="10" stroke-dasharray="3" />
        </g>
        <g transform="translate(2,10) scale(1,1)">
            <rect fill="#C0C0C0" stroke="none" x="751" y="47" width="117.998046875" height="39" opacity="0.2" />
        </g>
        <g transform="translate(2,10) scale(1,1)">
            <rect fill="#ffffff" stroke="none" x="744" y="40" width="117.998046875" height="39" />
        </g>
        <g transform="translate(2,10) scale(1,1)">
            <path fill="none" stroke="#000000" d="M 744 40 L 861.998046875 40 L 861.998046875 79 L 744 79 L 744 40 Z Z" stroke-miterlimit="10" />
        </g>
        <g transform="translate(2,10) scale(1,1)">
            <g>
                <path fill="none" stroke="none" />
                <text fill="#000000" stroke="none" font-family="Arial" font-size="13px" font-style="normal" font-weight="bold" text-decoration="none" x="757.1181640625" y="59.5">: InvoiceService</text>
            </g>
        </g>
        <g transform="translate(2,10) scale(1,1)">
            <path fill="none" stroke="#000000" d="M 803.5 80 L 803.5 592" stroke-miterlimit="10" stroke-dasharray="3" />
        </g>
        <g transform="translate(2,10) scale(1,1)">
            <rect fill="#C0C0C0" stroke="none" x="351" y="47" width="120.16259765625" height="39" opacity="0.2" />
        </g>
        <g transform="translate(2,10) scale(1,1)">
            <rect fill="#ffffff" stroke="none" x="344" y="40" width="120.16259765625" height="39" />
        </g>
        <g transform="translate(2,10) scale(1,1)">
            <path fill="none" stroke="#000000" d="M 344 40 L 464.16259765625 40 L 464.16259765625 79 L 344 79 L 344 40 Z Z" stroke-miterlimit="10" />
        </g>
        <g transform="translate(2,10) scale(1,1)">
            <g>
                <path fill="none" stroke="none" />
                <text fill="#000000" stroke="none" font-family="Arial" font-size="13px" font-style="normal" font-weight="bold" text-decoration="none" x="359.647705078125" y="59.5">: RepairService</text>
            </g>
        </g>
        <g transform="translate(2,10) scale(1,1)">
            <path fill="none" stroke="#000000" d="M 405.5 80 L 405.5 592" stroke-miterlimit="10" stroke-dasharray="3" />
        </g>
        <g transform="translate(2,10) scale(1,1)">
            <rect fill="#C0C0C0" stroke="none" x="535" y="47" width="141.8017578125" height="39" opacity="0.2" />
        </g>
        <g transform="translate(2,10) scale(1,1)">
            <rect fill="#ffffff" stroke="none" x="528" y="40" width="141.8017578125" height="39" />
        </g>
        <g transform="translate(2,10) scale(1,1)">
            <path fill="none" stroke="#000000" d="M 528 40 L 669.8017578125 40 L 669.8017578125 79 L 528 79 L 528 40 Z Z" stroke-miterlimit="10" />
        </g>
        <g transform="translate(2,10) scale(1,1)">
            <g>
                <path fill="none" stroke="none" />
                <text fill="#000000" stroke="none" font-family="Arial" font-size="13px" font-style="normal" font-weight="bold" text-decoration="none" x="545.07275390625" y="59.5">: RepairRepository</text>
            </g>
        </g>
        <g transform="translate(2,10) scale(1,1)">
            <path fill="none" stroke="#000000" d="M 599.5 80 L 599.5 592" stroke-miterlimit="10" stroke-dasharray="3" />
        </g>
        <g transform="translate(2,10) scale(1,1)">
            <rect fill="#C0C0C0" stroke="none" x="1343" y="47" width="121.603515625" height="39" opacity="0.2" />
        </g>
        <g transform="translate(2,10) scale(1,1)">
            <rect fill="#ffffff" stroke="none" x="1336" y="40" width="121.603515625" height="39" />
        </g>
        <g transform="translate(2,10) scale(1,1)">
            <path fill="none" stroke="#000000" d="M 1336 40 L 1457.603515625 40 L 1457.603515625 79 L 1336 79 L 1336 40 Z Z" stroke-miterlimit="10" />
        </g>
        <g transform="translate(2,10) scale(1,1)">
            <g>
                <path fill="none" stroke="none" />
                <text fill="#000000" stroke="none" font-family="Arial" font-size="13px" font-style="normal" font-weight="bold" text-decoration="none" x="1348.75" y="59.5">: StorageService</text>
            </g>
        </g>
        <g transform="translate(2,10) scale(1,1)">
            <path fill="none" stroke="#000000" d="M 1397.5 80 L 1397.5 592" stroke-miterlimit="10" stroke-dasharray="3" />
        </g>
        <g transform="translate(2,10) scale(1,1)">
            <rect fill="#C0C0C0" stroke="none" x="1151" y="47" width="139.63720703125" height="39" opacity="0.2" />
        </g>
        <g transform="translate(2,10) scale(1,1)">
            <rect fill="#ffffff" stroke="none" x="1144" y="40" width="139.63720703125" height="39" />
        </g>
        <g transform="translate(2,10) scale(1,1)">
            <path fill="none" stroke="#000000" d="M 1144 40 L 1283.63720703125 40 L 1283.63720703125 79 L 1144 79 L 1144 40 Z Z" stroke-miterlimit="10" />
        </g>
        <g transform="translate(2,10) scale(1,1)">
            <g>
                <path fill="none" stroke="none" />
                <text fill="#000000" stroke="none" font-family="Arial" font-size="13px" font-style="normal" font-weight="bold" text-decoration="none" x="1158.543212890625" y="59.5">: InvoiceRepository</text>
            </g>
        </g>
        <g transform="translate(2,10) scale(1,1)">
            <path fill="none" stroke="#000000" d="M 1214.5 80 L 1214.5 592" stroke-miterlimit="10" stroke-dasharray="3" />
        </g>
        <g transform="translate(2,10) scale(1,1)">
            <rect fill="#C0C0C0" stroke="none" x="951" y="204" width="152.6435546875" height="39" opacity="0.2" />
        </g>
        <g transform="translate(2,10) scale(1,1)">
            <rect fill="#ffffff" stroke="none" x="944" y="197" width="152.6435546875" height="39" />
        </g>
        <g transform="translate(2,10) scale(1,1)">
            <path fill="none" stroke="#000000" d="M 944 197 L 1096.6435546875 197 L 1096.6435546875 236 L 944 236 L 944 197 Z Z" stroke-miterlimit="10" />
        </g>
        <g transform="translate(2,10) scale(1,1)">
            <g>
                <path fill="none" stroke="none" />
                <text fill="#000000" stroke="none" font-family="Arial" font-size="13px" font-style="normal" font-weight="bold" text-decoration="none" x="959.62548828125" y="216.5">invoice: InvoiceEntity</text>
            </g>
        </g>
        <g transform="translate(2,10) scale(1,1)">
            <path fill="none" stroke="#000000" d="M 1021.5 237 L 1021.5 592" stroke-miterlimit="10" stroke-dasharray="3" />
        </g>
        <g transform="translate(2,10) scale(1,1)">
            <rect fill="#C0C0C0" stroke="none" x="1543" y="395" width="166.14501953125" height="39" opacity="0.2" />
        </g>
        <g transform="translate(2,10) scale(1,1)">
            <rect fill="#ffffff" stroke="none" x="1536" y="388" width="166.14501953125" height="39" />
        </g>
        <g transform="translate(2,10) scale(1,1)">
            <path fill="none" stroke="#000000" d="M 1536 388 L 1702.14501953125 388 L 1702.14501953125 427 L 1536 427 L 1536 388 Z Z" stroke-miterlimit="10" />
        </g>
        <g transform="translate(2,10) scale(1,1)">
            <g>
                <path fill="none" stroke="none" />
                <text fill="#000000" stroke="none" font-family="Arial" font-size="13px" font-style="normal" font-weight="bold" text-decoration="none" x="1550.067138671875" y="407.5">renderer: ITextRenderer</text>
            </g>
        </g>
        <g transform="translate(2,10) scale(1,1)">
            <path fill="none" stroke="#000000" d="M 1620.5 428 L 1620.5 592" stroke-miterlimit="10" stroke-dasharray="3" />
        </g>
        <g transform="translate(2,10) scale(1,1)">
            <path fill="none" stroke="#000000" d="M 43 113 L 206 113" stroke-miterlimit="10" />
        </g>
        <g transform="translate(2,10) scale(1,1)">
            <path fill="#000000" stroke="none" d="M 195.83732514237585 117.20951775601598 L 206 113 L 195.83732514237585 108.79048224398402" />
        </g>
        <g transform="translate(2,10) scale(1,1)">
            <path fill="none" stroke="#000000" d="M 195.83732514237585 117.20951775601598 L 206 113 L 195.83732514237585 108.79048224398402 L 195.83732514237585 117.20951775601598" stroke-miterlimit="10" />
        </g>
        <g transform="translate(2,10) scale(1,1)">
            <g>
                <path fill="none" stroke="none" />
                <text fill="#000000" stroke="none" font-family="Arial" font-size="13px" font-style="normal" font-weight="normal" text-decoration="none" x="68.5" y="109.5">1 : generateInvoice</text>
            </g>
        </g>
        <g transform="translate(2,10) scale(1,1)">
            <rect fill="#ffffff" stroke="none" x="206" y="113" width="13" height="423" />
        </g>
        <g transform="translate(2,10) scale(1,1)">
            <path fill="none" stroke="#000000" d="M 206 113 L 219 113 L 219 536 L 206 536 L 206 113 Z Z" stroke-miterlimit="10" />
        </g>
        <g transform="translate(2,10) scale(1,1)">
            <path fill="none" stroke="#000000" d="M 219 130 L 398 130" stroke-miterlimit="10" />
        </g>
        <g transform="translate(2,10) scale(1,1)">
            <path fill="#000000" stroke="none" d="M 387.83732514237585 134.209517756016 L 398 130 L 387.83732514237585 125.79048224398402" />
        </g>
        <g transform="translate(2,10) scale(1,1)">
            <path fill="none" stroke="#000000" d="M 387.83732514237585 134.209517756016 L 398 130 L 387.83732514237585 125.79048224398402 L 387.83732514237585 134.209517756016" stroke-miterlimit="10" />
        </g>
        <g transform="translate(2,10) scale(1,1)">
            <g>
                <path fill="none" stroke="none" />
                <text fill="#000000" stroke="none" font-family="Arial" font-size="13px" font-style="normal" font-weight="normal" text-decoration="none" x="243.5" y="126.5">2 : generateInvoice(id)</text>
            </g>
        </g>
        <g transform="translate(2,10) scale(1,1)">
            <rect fill="#ffffff" stroke="none" x="398" y="130" width="13" height="398" />
        </g>
        <g transform="translate(2,10) scale(1,1)">
            <path fill="none" stroke="#000000" d="M 398 130 L 411 130 L 411 528 L 398 528 L 398 130 Z Z" stroke-miterlimit="10" />
        </g>
        <g transform="translate(2,10) scale(1,1)">
            <path fill="none" stroke="#000000" d="M 411 144 L 592 144" stroke-miterlimit="10" />
        </g>
        <g transform="translate(2,10) scale(1,1)">
            <path fill="#000000" stroke="none" d="M 581.8373251423759 148.209517756016 L 592 144 L 581.8373251423758 139.790482243984" />
        </g>
        <g transform="translate(2,10) scale(1,1)">
            <path fill="none" stroke="#000000" d="M 581.8373251423759 148.209517756016 L 592 144 L 581.8373251423758 139.790482243984 L 581.8373251423759 148.209517756016" stroke-miterlimit="10" />
        </g>
        <g transform="translate(2,10) scale(1,1)">
            <g>
                <path fill="none" stroke="none" />
                <text fill="#000000" stroke="none" font-family="Arial" font-size="13px" font-style="normal" font-weight="normal" text-decoration="none" x="459.5" y="140.5">3 : findById(id)</text>
            </g>
        </g>
        <g transform="translate(2,10) scale(1,1)">
            <rect fill="#ffffff" stroke="none" x="592" y="144" width="13" height="28" />
        </g>
        <g transform="translate(2,10) scale(1,1)">
            <path fill="none" stroke="#000000" d="M 592 144 L 605 144 L 605 172 L 592 172 L 592 144 Z Z" stroke-miterlimit="10" />
        </g>
        <g transform="translate(2,10) scale(1,1)">
            <path fill="none" stroke="#000000" d="M 592 168 L 411 168" stroke-miterlimit="10" stroke-dasharray="3" />
        </g>
        <g transform="translate(2,10) scale(1,1)">
            <path fill="none" stroke="#000000" d="M 421.16267485762415 163.790482243984 L 411 168 L 421.16267485762415 172.209517756016" stroke-miterlimit="10" />
        </g>
        <g transform="translate(2,10) scale(1,1)">
            <g>
                <path fill="none" stroke="none" />
                <text fill="#000000" stroke="none" font-family="Arial" font-size="13px" font-style="normal" font-weight="normal" text-decoration="none" x="483.78271484375" y="184.5">repair</text>
            </g>
        </g>
        <g transform="translate(2,10) scale(1,1)">
            <path fill="none" stroke="#000000" d="M 411 208 L 796 208" stroke-miterlimit="10" />
        </g>
        <g transform="translate(2,10) scale(1,1)">
            <path fill="#000000" stroke="none" d="M 785.8373251423759 212.209517756016 L 796 208 L 785.8373251423758 203.790482243984" />
        </g>
        <g transform="translate(2,10) scale(1,1)">
            <path fill="none" stroke="#000000" d="M 785.8373251423759 212.209517756016 L 796 208 L 785.8373251423758 203.790482243984 L 785.8373251423759 212.209517756016" stroke-miterlimit="10" />
        </g>
        <g transform="translate(2,10) scale(1,1)">
            <g>
                <path fill="none" stroke="none" />
                <text fill="#000000" stroke="none" font-family="Arial" font-size="13px" font-style="normal" font-weight="normal" text-decoration="none" x="620.9208984375" y="204.5">4 : generateInvoice(repair)</text>
            </g>
        </g>
        <g transform="translate(2,10) scale(1,1)">
            <rect fill="#ffffff" stroke="none" x="796" y="208" width="13" height="288" />
        </g>
        <g transform="translate(2,10) scale(1,1)">
            <path fill="none" stroke="#000000" d="M 796 208 L 809 208 L 809 496 L 796 496 L 796 208 Z Z" stroke-miterlimit="10" />
        </g>
        <g transform="translate(2,10) scale(1,1)">
            <path fill="none" stroke="#000000" d="M 809 217 L 944 217" stroke-miterlimit="10" stroke-dasharray="3" />
        </g>
        <g transform="translate(2,10) scale(1,1)">
            <path fill="none" stroke="#000000" d="M 933.8373251423759 221.209517756016 L 944 217 L 933.8373251423758 212.790482243984" stroke-miterlimit="10" />
        </g>
        <g transform="translate(2,10) scale(1,1)">
            <g>
                <path fill="none" stroke="none" />
                <text fill="#000000" stroke="none" font-family="Arial" font-size="13px" font-style="normal" font-weight="normal" text-decoration="none" x="849.5" y="211.5">«create»</text>
            </g>
        </g>
        <g transform="translate(2,10) scale(1,1)">
            <path fill="none" stroke="#000000" d="M 809 264 L 1207 264" stroke-miterlimit="10" />
        </g>
        <g transform="translate(2,10) scale(1,1)">
            <path fill="#000000" stroke="none" d="M 1196.837325142376 268.209517756016 L 1207 264 L 1196.837325142376 259.790482243984" />
        </g>
        <g transform="translate(2,10) scale(1,1)">
            <path fill="none" stroke="#000000" d="M 1196.837325142376 268.209517756016 L 1207 264 L 1196.837325142376 259.790482243984 L 1196.837325142376 268.209517756016" stroke-miterlimit="10" />
        </g>
        <g transform="translate(2,10) scale(1,1)">
            <g>
                <path fill="none" stroke="none" />
                <text fill="#000000" stroke="none" font-family="Arial" font-size="13px" font-style="normal" font-weight="normal" text-decoration="none" x="822.5" y="259.5">5 : save(invoice)</text>
            </g>
        </g>
        <g transform="translate(2,10) scale(1,1)">
            <rect fill="#ffffff" stroke="none" x="1207" y="264" width="13" height="28" />
        </g>
        <g transform="translate(2,10) scale(1,1)">
            <path fill="none" stroke="#000000" d="M 1207 264 L 1220 264 L 1220 292 L 1207 292 L 1207 264 Z Z" stroke-miterlimit="10" />
        </g>
        <g transform="translate(2,10) scale(1,1)">
            <path fill="none" stroke="#000000" d="M 809 336 L 1390 336" stroke-miterlimit="10" />
        </g>
        <g transform="translate(2,10) scale(1,1)">
            <path fill="#000000" stroke="none" d="M 1379.837325142376 340.209517756016 L 1390 336 L 1379.837325142376 331.790482243984" />
        </g>
        <g transform="translate(2,10) scale(1,1)">
            <path fill="none" stroke="#000000" d="M 1379.837325142376 340.209517756016 L 1390 336 L 1379.837325142376 331.790482243984 L 1379.837325142376 340.209517756016" stroke-miterlimit="10" />
        </g>
        <g transform="translate(2,10) scale(1,1)">
            <g>
                <path fill="none" stroke="none" />
                <text fill="#000000" stroke="none" font-family="Arial" font-size="13px" font-style="normal" font-weight="normal" text-decoration="none" x="831.5" y="331.5">6 : createOutputStream(id)</text>
            </g>
        </g>
        <g transform="translate(2,10) scale(1,1)">
            <rect fill="#ffffff" stroke="none" x="1390" y="336" width="13" height="28" />
        </g>
        <g transform="translate(2,10) scale(1,1)">
            <path fill="none" stroke="#000000" d="M 1390 336 L 1403 336 L 1403 364 L 1390 364 L 1390 336 Z Z" stroke-miterlimit="10" />
        </g>
        <g transform="translate(2,10) scale(1,1)">
            <path fill="none" stroke="#000000" d="M 1390 360 L 809 360" stroke-miterlimit="10" stroke-dasharray="3" />
        </g>
        <g transform="translate(2,10) scale(1,1)">
            <path fill="none" stroke="#000000" d="M 819.1626748576241 355.790482243984 L 809 360 L 819.1626748576241 364.209517756016" stroke-miterlimit="10" />
        </g>
        <g transform="translate(2,10) scale(1,1)">
            <g>
                <path fill="none" stroke="none" />
                <text fill="#000000" stroke="none" font-family="Arial" font-size="13px" font-style="normal" font-weight="normal" text-decoration="none" x="839.53271484375" y="380.5">outputStream</text>
            </g>
        </g>
        <g transform="translate(2,10) scale(1,1)">
            <path fill="none" stroke="#000000" d="M 809 408 L 1536 408" stroke-miterlimit="10" stroke-dasharray="3" />
        </g>
        <g transform="translate(2,10) scale(1,1)">
            <path fill="none" stroke="#000000" d="M 1525.837325142376 412.209517756016 L 1536 408 L 1525.837325142376 403.790482243984" stroke-miterlimit="10" />
        </g>
        <g transform="translate(2,10) scale(1,1)">
            <g>
                <path fill="none" stroke="none" />
                <text fill="#000000" stroke="none" font-family="Arial" font-size="13px" font-style="normal" font-weight="normal" text-decoration="none" x="1083.5" y="403.5">«create»</text>
            </g>
        </g>
        <g transform="translate(2,10) scale(1,1)">
            <path fill="none" stroke="#000000" d="M 809 464 L 1613 464" stroke-miterlimit="10" />
        </g>
        <g transform="translate(2,10) scale(1,1)">
            <path fill="#000000" stroke="none" d="M 1602.837325142376 468.209517756016 L 1613 464 L 1602.837325142376 459.790482243984" />
        </g>
        <g transform="translate(2,10) scale(1,1)">
            <path fill="none" stroke="#000000" d="M 1602.837325142376 468.209517756016 L 1613 464 L 1602.837325142376 459.790482243984 L 1602.837325142376 468.209517756016" stroke-miterlimit="10" />
        </g>
        <g transform="translate(2,10) scale(1,1)">
            <g>
                <path fill="none" stroke="none" />
                <text fill="#000000" stroke="none" font-family="Arial" font-size="13px" font-style="normal" font-weight="normal" text-decoration="none" x="1029.5" y="458.5">7 : createPDF(outputStream)</text>
            </g>
        </g>
        <g transform="translate(2,10) scale(1,1)">
            <rect fill="#ffffff" stroke="none" x="1613" y="464" width="13" height="28" />
        </g>
        <g transform="translate(2,10) scale(1,1)">
            <path fill="none" stroke="#000000" d="M 1613 464 L 1626 464 L 1626 492 L 1613 492 L 1613 464 Z Z" stroke-miterlimit="10" />
        </g>
        <g transform="translate(2,10) scale(1,1)">
            <path fill="none" stroke="#000000" d="M 803 496 L 411 496" stroke-miterlimit="10" stroke-dasharray="3" />
        </g>
        <g transform="translate(2,10) scale(1,1)">
            <path fill="none" stroke="#000000" d="M 421.16267485762415 491.790482243984 L 411 496 L 421.16267485762415 500.209517756016" stroke-miterlimit="10" />
        </g>
        <g transform="translate(2,10) scale(1,1)">
            <g>
                <path fill="none" stroke="none" />
                <text fill="#000000" stroke="none" font-family="Arial" font-size="13px" font-style="normal" font-weight="normal" text-decoration="none" x="566.5" y="512.5">pdf</text>
            </g>
        </g>
        <g transform="translate(2,10) scale(1,1)">
            <path fill="none" stroke="#000000" d="M 405 528 L 219 528" stroke-miterlimit="10" stroke-dasharray="3" />
        </g>
        <g transform="translate(2,10) scale(1,1)">
            <path fill="none" stroke="#000000" d="M 229.16267485762415 523.790482243984 L 219 528 L 229.16267485762415 532.209517756016" stroke-miterlimit="10" />
        </g>
        <g transform="translate(2,10) scale(1,1)">
            <g>
                <path fill="none" stroke="none" />
                <text fill="#000000" stroke="none" font-family="Arial" font-size="13px" font-style="normal" font-weight="normal" text-decoration="none" x="301.5" y="544.5">pdf</text>
            </g>
        </g>
    </g>
</svg>